# xmcd
#
# Track frame offsets:
#	180
#	11043
#	24926
#	41607
#	60477
#	72313
#	85296
#	98023
#	110435
#	123151
#	136672
#	147596
#	161492
#	178099
#	196818
#	208719
#	221611
#	234447
#	246982
#	259712
#
# Disc length: 3644 seconds
#
# Revision: 2
# Processed by: cddbd v1.5.2PL0 Copyright (c) Steve Scherf et al.
# Submitted via: audiograbber 1.83.01
#
DISCID=160e3a14
DTITLE=Various Artist - Pocket Songs PSCDG 1275 Blues Kings
DYEAR=1900
DGENRE=Blues
TTITLE0=King, B. B. - The Thrill Is Gone (Vocal)
TTITLE1=King, B. B. - Rock Me Baby (Vocal)
TTITLE2=King, B. B. - My Lucille (Vocal)
TTITLE3=King, B. B. - Big Boss Man (Vocal)
TTITLE4=King, B. B. - Paying The Cost To Be The Boss (Vocal)
TTITLE5=Milton, Little - Who's Cheatin Who (Vocal)
TTITLE6=Rogers, Jimmy - Walkin By Myself (Vocal)
TTITLE7=Waters, Muddy - Baby Please Don't Go (Vocal)
TTITLE8=Spann, Otis - I'm Leaving You (Vocal)
TTITLE9=Williamson, Sonny Boy - Keep It To Yourself (Vocal)
TTITLE10=King, B. B. - The Thrill Is Gone
TTITLE11=King, B. B. - Rock Me Baby
TTITLE12=King, B. B. - My Lucille
TTITLE13=King, B. B. - Big Boss Man
TTITLE14=King, B. B. - Paying The Cost To Be The Boss
TTITLE15=Milton, Little - Who's Cheatin Who
TTITLE16=Rogers, Jimmy - Walkin By Myself
TTITLE17=Waters, Muddy - Baby Please Don't Go
TTITLE18=Spann, Otis - I'm Leaving You
TTITLE19=Williamson, Sonny Boy - Keep It To Yourself
EXTD=
EXTT0=
EXTT1=
EXTT2=
EXTT3=
EXTT4=
EXTT5=
EXTT6=
EXTT7=
EXTT8=
EXTT9=
EXTT10=
EXTT11=
EXTT12=
EXTT13=
EXTT14=
EXTT15=
EXTT16=
EXTT17=
EXTT18=
EXTT19=
PLAYORDER=
